Coordinates
version=1
nRows=7
nColumns=40
inDegrees=yes

Units are S.I. units (second, meters, Newtons, ...)
Angles are in degrees.

endheader
time	pelvis_tilt	pelvis_list	pelvis_rotation	pelvis_tx	pelvis_ty	pelvis_tz	hip_flexion_r	hip_adduction_r	hip_rotation_r	knee_angle_r	knee_angle_r_beta	ankle_angle_r	subtalar_angle_r	mtp_angle_r	hip_flexion_l	hip_adduction_l	hip_rotation_l	knee_angle_l	knee_angle_l_beta	ankle_angle_l	subtalar_angle_l	mtp_angle_l	lumbar_extension	lumbar_bending	lumbar_rotation	arm_flex_r	arm_add_r	arm_rot_r	elbow_flex_r	pro_sup_r	wrist_flex_r	wrist_dev_r	arm_flex_l	arm_add_l	arm_rot_l	elbow_flex_l	pro_sup_l	wrist_flex_l	wrist_dev_l
     40.98000000	     -6.68354502	     -4.16043671	     -3.12921329	      1.04905556	      0.93272791	      0.42947078	     35.00397358	     -8.60111164	     -9.19957846	     70.18200719	     70.18200719	      6.60374335	    -16.32918327	      3.92655180	     18.14493805	     -6.45953734	    -10.53242559	     19.79439683	     19.79439683	     11.60559876	     -1.15387865	     -4.39800675	    -11.43867039	      1.54178873	      0.02734231	      8.54216957	    -15.05420633	      2.20205632	     83.90444228	     45.16642260	      0.00000000	      0.00000000	      9.45769037	    -15.12865984	      2.89982659	     34.90027940	     45.28237033	      0.00000000	      0.00000000
     40.99221429	     -6.54092550	     -4.33329210	     -3.32659769	      1.04791008	      0.93301769	      0.42946957	     35.90890442	     -8.18235107	     -8.75852214	     67.69393159	     67.69393159	      6.46595924	    -15.68276930	      3.69654839	     17.24804045	     -6.53871563	    -10.37422870	     19.50820994	     19.50820994	     11.92799581	     -1.61923729	     -4.53366159	    -11.70749496	      1.84207060	      0.41805705	      6.18347405	    -15.81527240	      1.93974030	     80.70351675	     45.26885364	      0.00000000	      0.00000000	     11.48749777	    -15.45250889	      2.78260076	     35.61155987	     45.34462735	      0.00000000	      0.00000000
     41.00442857	     -6.41585137	     -4.32438634	     -3.46380568	      1.04680987	      0.93315651	      0.42932605	     36.63368702	     -7.98790388	     -8.32385717	     64.88248736	     64.88248736	      5.90308750	    -15.08494045	      2.54545514	     16.34215483	     -6.32859869	     -9.94773776	     19.09809924	     19.09809924	     12.01272861	     -2.58276605	     -4.91170845	    -11.86997358	      1.89314251	      0.46499422	      4.48874744	    -15.47566116	      0.12006347	     75.41307784	     45.49112551	      0.00000000	      0.00000000	     13.37268496	    -15.91864360	      2.89125818	     36.17252726	     45.40113821	      0.00000000	      0.00000000
     41.01664286	     -6.26017838	     -4.39055388	     -3.62572718	      1.04579909	      0.93328841	      0.42931868	     37.08678761	     -7.65509726	     -7.93792082	     61.72571990	     61.72571990	      5.39031883	    -14.40105948	      1.76342302	     15.42217626	     -6.24298060	     -9.62728863	     18.74851445	     18.74851445	     12.13963585	     -3.34331711	     -5.27109735	    -12.12486363	      2.03990975	      0.73948310	      2.78469059	    -15.56481960	     -1.17879773	     70.76135883	     45.67298348	      0.00000000	      0.00000000	     15.13916594	    -16.34557173	      2.97115345	     37.34835645	     45.45889146	      0.00000000	      0.00000000
     41.02885714	     -6.13110902	     -4.44517547	     -3.80214617	      1.04478528	      0.93332726	      0.42938111	     37.36884516	     -7.30058125	     -7.61114761	     58.23567438	     58.23567438	      4.84461391	    -13.62995896	      1.16619991	     14.54217601	     -6.14298409	     -9.28218193	     18.39581711	     18.39581711	     12.23044528	     -4.19195688	     -5.58293788	    -12.34474576	      2.17966601	      0.85930497	      1.58432779	    -15.39912176	     -2.70731172	     65.46221243	     45.88256550	      0.00000000	      0.00000000	     16.66702395	    -16.83459254	      3.12114958	     38.71402470	     45.51199968	      0.00000000	      0.00000000
     41.04107143	     -5.99623868	     -4.49374883	     -3.97929275	      1.04387860	      0.93326218	      0.42958123	     37.45028317	     -6.91046325	     -7.34665277	     54.43819660	     54.43819660	      4.31905892	    -12.73697195	      0.73780109	     13.69229577	     -6.05759292	     -8.95470793	     18.12584760	     18.12584760	     12.36056043	     -5.00474290	     -5.84926253	    -12.57570354	      2.31686310	      0.88709992	      0.73126294	    -15.18361851	     -4.23649472	     59.93137461	     46.09432263	      0.00000000	      0.00000000	     17.95076202	    -17.38577714	      3.25266637	     40.40551529	     45.57535467	      0.00000000	      0.00000000
     41.05328571	     -5.93322103	     -4.51158390	     -4.20793560	      1.04300080	      0.93300374	      0.42998871	     37.43581569	     -6.48432871	     -7.13540153	     50.33362387	     50.33362387	      3.76132914	    -11.67068771	      0.27953212	     12.93462796	     -5.98063369	     -8.74026830	     17.89958602	     17.89958602	     12.53394826	     -5.70551398	     -6.04316128	    -12.73339679	      2.41669982	      0.97507291	      0.08388860	    -15.04495127	     -5.68315748	     54.37768531	     46.28188700	      0.00000000	      0.00000000	     19.00530009	    -17.94610886	      3.22996410	     42.62505221	     45.68503960	      0.00000000	      0.00000000
